<svg width="143" height="48" viewBox="0 0 143 48" fill="none" xmlns="http://www.w3.org/2000/svg">
<path d="M43.9999 23.9806C43.9999 12.9321 35.0291 3.98061 23.9805 4.00003C12.932 4.01945 4 12.9903 4 24.0194C4 35.0486 12.9903 44.0194 24.0388 44C26.2136 44 28.3689 43.6505 30.4271 42.9515C29.8446 40 28.9514 36.369 27.864 35.0292L22.5631 38.3884L21.3398 39.1262L16.7378 10.233L16.8155 10.3107L16.7573 10.233C16.7573 10.233 35.0291 23.1262 40.0582 32.8156L32.9126 33.7088C28.3495 26.602 23.9611 22.2913 23.9611 22.2913C28.0388 26.9321 31.1067 34.0194 32.9708 39.1845L33.7087 41.4952C40.0776 37.9612 44.0193 31.2622 43.9999 23.9806Z" fill="#06D6A0"/>
<path d="M61.312 16.2C62.848 16.2 63.992 16.56 64.744 17.28C65.496 18 65.872 19.064 65.872 20.472C65.872 21.224 65.688 21.888 65.32 22.464C64.952 23.024 64.408 23.464 63.688 23.784C62.968 24.088 62.08 24.24 61.024 24.24L61.12 23.16C61.616 23.16 62.184 23.232 62.824 23.376C63.464 23.504 64.08 23.744 64.672 24.096C65.28 24.432 65.776 24.912 66.16 25.536C66.56 26.144 66.76 26.928 66.76 27.888C66.76 28.944 66.584 29.808 66.232 30.48C65.896 31.152 65.448 31.672 64.888 32.04C64.328 32.408 63.728 32.664 63.088 32.808C62.448 32.936 61.832 33 61.24 33H55.264C54.848 33 54.496 32.864 54.208 32.592C53.936 32.304 53.8 31.952 53.8 31.536V17.664C53.8 17.248 53.936 16.904 54.208 16.632C54.496 16.344 54.848 16.2 55.264 16.2H61.312ZM60.88 19.032H56.608L56.92 18.648V22.992L56.632 22.776H60.952C61.416 22.776 61.832 22.624 62.2 22.32C62.568 22.016 62.752 21.576 62.752 21C62.752 20.312 62.576 19.816 62.224 19.512C61.888 19.192 61.44 19.032 60.88 19.032ZM61.072 25.608H56.704L56.92 25.416V30.48L56.68 30.24H61.24C61.976 30.24 62.56 30.048 62.992 29.664C63.424 29.264 63.64 28.672 63.64 27.888C63.64 27.168 63.496 26.648 63.208 26.328C62.92 26.008 62.576 25.808 62.176 25.728C61.776 25.648 61.408 25.608 61.072 25.608ZM70.7266 33C70.3106 33 69.9666 32.864 69.6946 32.592C69.4226 32.304 69.2866 31.952 69.2866 31.536V21.624C69.2866 21.208 69.4226 20.864 69.6946 20.592C69.9666 20.304 70.3106 20.16 70.7266 20.16C71.1426 20.16 71.4866 20.304 71.7586 20.592C72.0306 20.864 72.1666 21.208 72.1666 21.624V23.88L71.9986 22.272C72.1746 21.888 72.3986 21.552 72.6706 21.264C72.9586 20.96 73.2786 20.712 73.6306 20.52C73.9826 20.312 74.3586 20.16 74.7586 20.064C75.1586 19.968 75.5586 19.92 75.9586 19.92C76.4386 19.92 76.8386 20.056 77.1586 20.328C77.4946 20.6 77.6626 20.92 77.6626 21.288C77.6626 21.816 77.5266 22.2 77.2546 22.44C76.9826 22.664 76.6866 22.776 76.3666 22.776C76.0626 22.776 75.7826 22.72 75.5266 22.608C75.2866 22.496 75.0066 22.44 74.6866 22.44C74.3986 22.44 74.1026 22.512 73.7986 22.656C73.5106 22.784 73.2386 22.992 72.9826 23.28C72.7426 23.568 72.5426 23.928 72.3826 24.36C72.2386 24.776 72.1666 25.272 72.1666 25.848V31.536C72.1666 31.952 72.0306 32.304 71.7586 32.592C71.4866 32.864 71.1426 33 70.7266 33ZM91.4898 26.592C91.4898 27.904 91.1938 29.064 90.6018 30.072C90.0258 31.064 89.2418 31.84 88.2498 32.4C87.2738 32.96 86.1778 33.24 84.9618 33.24C83.7458 33.24 82.6418 32.96 81.6498 32.4C80.6738 31.84 79.8898 31.064 79.2978 30.072C78.7218 29.064 78.4338 27.904 78.4338 26.592C78.4338 25.28 78.7218 24.128 79.2978 23.136C79.8898 22.128 80.6738 21.344 81.6498 20.784C82.6418 20.208 83.7458 19.92 84.9618 19.92C86.1778 19.92 87.2738 20.208 88.2498 20.784C89.2418 21.344 90.0258 22.128 90.6018 23.136C91.1938 24.128 91.4898 25.28 91.4898 26.592ZM88.6098 26.592C88.6098 25.776 88.4418 25.072 88.1058 24.48C87.7858 23.872 87.3458 23.4 86.7858 23.064C86.2418 22.728 85.6338 22.56 84.9618 22.56C84.2898 22.56 83.6738 22.728 83.1138 23.064C82.5698 23.4 82.1298 23.872 81.7938 24.48C81.4738 25.072 81.3138 25.776 81.3138 26.592C81.3138 27.392 81.4738 28.096 81.7938 28.704C82.1298 29.296 82.5698 29.76 83.1138 30.096C83.6738 30.432 84.2898 30.6 84.9618 30.6C85.6338 30.6 86.2418 30.432 86.7858 30.096C87.3458 29.76 87.7858 29.296 88.1058 28.704C88.4418 28.096 88.6098 27.392 88.6098 26.592ZM108.68 20.16C109.048 20.16 109.368 20.304 109.64 20.592C109.912 20.864 110.048 21.216 110.048 21.648C110.048 21.76 110.04 21.864 110.024 21.96C110.008 22.04 109.984 22.12 109.952 22.2L106.28 32.088C106.168 32.408 105.968 32.656 105.68 32.832C105.392 32.992 105.088 33.048 104.768 33C104.224 32.968 103.816 32.664 103.544 32.088L101.168 25.248L101.792 25.272L99.5599 32.088C99.2879 32.664 98.8799 32.968 98.3359 33C98.0319 33.048 97.7279 32.992 97.4239 32.832C97.1359 32.656 96.9359 32.408 96.8239 32.088L93.1519 22.2C93.0879 22.024 93.0559 21.84 93.0559 21.648C93.0559 21.264 93.1839 20.92 93.4399 20.616C93.6959 20.312 94.0479 20.16 94.4959 20.16C94.7999 20.16 95.0719 20.232 95.3119 20.376C95.5519 20.52 95.7199 20.752 95.8159 21.072L98.7199 28.944L98.1199 28.896L100.304 22.968C100.56 22.376 101 22.08 101.624 22.08C101.976 22.08 102.24 22.16 102.416 22.32C102.608 22.464 102.76 22.68 102.872 22.968L105.056 28.896L104.336 28.992L107.288 21.072C107.48 20.464 107.944 20.16 108.68 20.16ZM111.457 31.008C111.297 30.784 111.225 30.496 111.241 30.144C111.257 29.792 111.465 29.488 111.865 29.232C112.121 29.072 112.393 29.008 112.681 29.04C112.969 29.056 113.249 29.2 113.521 29.472C113.985 29.936 114.473 30.296 114.985 30.552C115.497 30.808 116.137 30.936 116.905 30.936C117.145 30.92 117.409 30.888 117.697 30.84C117.985 30.776 118.233 30.648 118.441 30.456C118.665 30.248 118.777 29.936 118.777 29.52C118.777 29.168 118.657 28.888 118.417 28.68C118.177 28.472 117.857 28.296 117.457 28.152C117.073 28.008 116.641 27.872 116.161 27.744C115.665 27.6 115.153 27.44 114.625 27.264C114.113 27.088 113.641 26.864 113.209 26.592C112.777 26.304 112.425 25.928 112.153 25.464C111.881 25 111.745 24.416 111.745 23.712C111.745 22.912 111.969 22.232 112.417 21.672C112.865 21.112 113.441 20.68 114.145 20.376C114.865 20.072 115.617 19.92 116.401 19.92C116.897 19.92 117.417 19.984 117.961 20.112C118.505 20.224 119.025 20.416 119.521 20.688C120.017 20.944 120.433 21.288 120.769 21.72C120.945 21.96 121.049 22.248 121.081 22.584C121.113 22.92 120.961 23.224 120.625 23.496C120.385 23.688 120.105 23.776 119.785 23.76C119.465 23.728 119.201 23.616 118.993 23.424C118.721 23.072 118.353 22.792 117.889 22.584C117.441 22.376 116.921 22.272 116.329 22.272C116.089 22.272 115.825 22.304 115.537 22.368C115.265 22.416 115.025 22.536 114.817 22.728C114.609 22.904 114.505 23.192 114.505 23.592C114.505 23.96 114.625 24.256 114.865 24.48C115.105 24.688 115.425 24.864 115.825 25.008C116.241 25.136 116.681 25.264 117.145 25.392C117.625 25.52 118.113 25.672 118.609 25.848C119.105 26.024 119.561 26.256 119.977 26.544C120.393 26.832 120.729 27.208 120.985 27.672C121.241 28.12 121.369 28.696 121.369 29.4C121.369 30.216 121.129 30.912 120.649 31.488C120.169 32.064 119.569 32.504 118.849 32.808C118.129 33.096 117.393 33.24 116.641 33.24C115.697 33.24 114.753 33.08 113.809 32.76C112.865 32.424 112.081 31.84 111.457 31.008ZM133.307 20.16C133.723 20.16 134.067 20.304 134.339 20.592C134.611 20.864 134.747 21.208 134.747 21.624V31.824C134.747 33.296 134.467 34.464 133.907 35.328C133.363 36.208 132.627 36.84 131.699 37.224C130.771 37.608 129.731 37.8 128.579 37.8C128.067 37.8 127.523 37.76 126.947 37.68C126.371 37.6 125.899 37.48 125.531 37.32C125.051 37.112 124.715 36.848 124.523 36.528C124.347 36.224 124.315 35.896 124.427 35.544C124.571 35.08 124.803 34.76 125.123 34.584C125.443 34.424 125.779 34.408 126.131 34.536C126.387 34.616 126.723 34.736 127.139 34.896C127.555 35.072 128.035 35.16 128.579 35.16C129.315 35.16 129.923 35.056 130.403 34.848C130.899 34.656 131.267 34.32 131.507 33.84C131.763 33.376 131.891 32.736 131.891 31.92V30.312L132.395 30.888C132.123 31.416 131.779 31.856 131.363 32.208C130.963 32.544 130.483 32.8 129.923 32.976C129.363 33.152 128.723 33.24 128.003 33.24C127.155 33.24 126.411 33.048 125.771 32.664C125.147 32.264 124.659 31.72 124.307 31.032C123.955 30.328 123.779 29.528 123.779 28.632V21.624C123.779 21.208 123.915 20.864 124.187 20.592C124.459 20.304 124.803 20.16 125.219 20.16C125.635 20.16 125.979 20.304 126.251 20.592C126.523 20.864 126.659 21.208 126.659 21.624V27.768C126.659 28.808 126.883 29.544 127.331 29.976C127.795 30.392 128.435 30.6 129.251 30.6C129.811 30.6 130.283 30.496 130.667 30.288C131.051 30.064 131.347 29.744 131.555 29.328C131.763 28.896 131.867 28.376 131.867 27.768V21.624C131.867 21.208 132.003 20.864 132.275 20.592C132.547 20.304 132.891 20.16 133.307 20.16Z" fill="#084458"/>
</svg>
